<?xml version="1.0" encoding="UTF-8" standalone="no"?>
<!DOCTYPE svg PUBLIC "-//W3C//DTD SVG 1.1//EN" "http://www.w3.org/Graphics/SVG/1.1/DTD/svg11.dtd">
<svg width="100%" height="100%" viewBox="0 0 936 143" version="1.1" xmlns="http://www.w3.org/2000/svg" xmlns:xlink="http://www.w3.org/1999/xlink" xml:space="preserve" xmlns:serif="http://www.serif.com/" style="fill-rule:evenodd;clip-rule:evenodd;stroke-linejoin:round;stroke-miterlimit:2;">
    <g id="White" transform="matrix(0.725971,0,0,0.179193,80.5417,55.1426)">
        <g transform="matrix(8.11958,0,0,32.8951,-4500.83,-8486.82)">
            <path d="M556.556,268.38L556.556,263.83C556.556,263.196 556.465,262.78 556.281,262.58C556.098,262.38 555.673,262.28 555.006,262.28L544.606,262.28C541.973,262.28 540.656,260.963 540.656,258.33L540.656,252.58C540.656,249.946 541.973,248.63 544.606,248.63L564.056,248.63C566.69,248.63 568.006,249.946 568.006,252.58L568.006,256.73L556.406,256.73L556.406,253.13C556.406,252.496 556.306,252.08 556.106,251.88C555.906,251.68 555.49,251.58 554.856,251.58L554.206,251.58C553.54,251.58 553.115,251.68 552.931,251.88C552.748,252.08 552.656,252.496 552.656,253.13L552.656,257.78C552.656,258.446 552.748,258.871 552.931,259.055C553.115,259.238 553.54,259.33 554.206,259.33L564.606,259.33C567.24,259.33 568.556,260.646 568.556,263.28L568.556,268.93C568.556,271.563 567.24,272.88 564.606,272.88L544.856,272.88C542.223,272.88 540.906,271.563 540.906,268.93L540.906,264.78L552.506,264.78L552.506,268.38C552.506,269.046 552.606,269.471 552.806,269.655C553.006,269.838 553.423,269.93 554.056,269.93L555.006,269.93C555.673,269.93 556.098,269.838 556.281,269.655C556.465,269.471 556.556,269.046 556.556,268.38Z" style="fill:white;fill-rule:nonzero;"/>
        </g>
        <g transform="matrix(8.11958,0,0,32.8951,-4487.06,-8486.82)">
            <rect x="570.306" y="248.63" width="12" height="24.25" style="fill:white;fill-rule:nonzero;"/>
        </g>
        <g transform="matrix(8.11958,0,0,32.8951,-4473.28,-8486.82)">
            <path d="M616.806,248.63L626.556,248.63C629.19,248.63 630.506,249.946 630.506,252.58L630.506,272.88L618.506,272.88L618.506,253.13C618.506,252.496 618.415,252.08 618.231,251.88C618.048,251.68 617.623,251.58 616.956,251.58L615.606,251.58C614.306,251.58 613.656,252.23 613.656,253.53L613.656,272.88L601.656,272.88L601.656,253.13C601.656,252.496 601.556,252.08 601.356,251.88C601.156,251.68 600.74,251.58 600.106,251.58L598.706,251.58C597.44,251.58 596.806,252.063 596.806,253.03L596.806,272.88L584.806,272.88L584.806,248.63L596.806,248.63L596.806,249.93C597.273,249.063 598.24,248.63 599.706,248.63L609.706,248.63C611.706,248.63 612.956,249.396 613.456,250.93C613.89,249.396 615.006,248.63 616.806,248.63Z" style="fill:white;fill-rule:nonzero;"/>
        </g>
        <g transform="matrix(8.11958,0,0,32.8951,-4459.51,-8486.82)">
            <path d="M649.506,268.38L649.506,253.13C649.506,252.496 649.406,252.08 649.206,251.88C649.006,251.68 648.59,251.58 647.956,251.58L646.056,251.58C645.423,251.58 645.006,251.68 644.806,251.88C644.606,252.08 644.506,252.496 644.506,253.13L644.506,268.38C644.506,269.046 644.606,269.471 644.806,269.655C645.006,269.838 645.423,269.93 646.056,269.93L647.956,269.93C648.59,269.93 649.006,269.838 649.206,269.655C649.406,269.471 649.506,269.046 649.506,268.38ZM636.456,248.63L657.556,248.63C660.19,248.63 661.506,249.946 661.506,252.58L661.506,268.93C661.506,271.563 660.19,272.88 657.556,272.88L636.456,272.88C633.823,272.88 632.506,271.563 632.506,268.93L632.506,252.58C632.506,249.946 633.823,248.63 636.456,248.63Z" style="fill:white;fill-rule:nonzero;"/>
        </g>
        <g transform="matrix(8.11958,0,0,32.8951,-4445.73,-8486.82)">
            <path d="M678.656,248.63L688.656,248.63C691.29,248.63 692.606,249.946 692.606,252.58L692.606,272.88L680.606,272.88L680.606,253.13C680.606,252.496 680.506,252.08 680.306,251.88C680.106,251.68 679.69,251.58 679.056,251.58L677.656,251.58C676.39,251.58 675.756,252.063 675.756,253.03L675.756,272.88L663.756,272.88L663.756,248.63L675.756,248.63L675.756,249.93C676.223,249.063 677.19,248.63 678.656,248.63Z" style="fill:white;fill-rule:nonzero;"/>
        </g>
    </g>
    <g id="Artboard1" transform="matrix(0.66366,0,0,0.179193,129.913,55.1426)">
        <rect x="-195.752" y="-307.727" width="1409.91" height="796.905" style="fill:none;"/>
    </g>
</svg>
